<svg width="98" height="98" viewBox="0 0 98 98" fill="none" xmlns="http://www.w3.org/2000/svg">
<g filter="url(#filter0_d_596_148)">
<circle cx="49" cy="45" r="45" fill="#F21B6A"/>
<path d="M33.3249 69.105C31.5549 69.105 30.0849 68.82 28.9149 68.25C27.7749 67.68 26.8749 66.825 26.2149 65.685C25.5549 64.575 25.0899 63.225 24.8199 61.635C24.5499 60.015 24.4149 58.155 24.4149 56.055C24.4149 54.495 24.2049 53.295 23.7849 52.455C23.3649 51.585 22.7349 50.88 21.8949 50.34L21.5799 50.205C20.8299 49.725 20.4549 49.155 20.4549 48.495V47.595C20.4549 46.935 20.8299 46.365 21.5799 45.885L21.9399 45.7049C22.7799 45.1349 23.3949 44.445 23.7849 43.635C24.2049 42.795 24.4149 41.5949 24.4149 40.035C24.4149 37.9349 24.5499 36.0899 24.8199 34.5C25.0899 32.8799 25.5549 31.5149 26.2149 30.4049C26.8749 29.2949 27.7749 28.4549 28.9149 27.8849C30.0849 27.315 31.5549 27.03 33.3249 27.03H33.5499C33.8499 27.03 34.0899 27.1199 34.2699 27.2999C34.4499 27.4799 34.5399 27.7199 34.5399 28.02V29.685C34.5399 29.985 34.4499 30.225 34.2699 30.4049C34.0899 30.5849 33.8649 30.6749 33.5949 30.6749H33.3699C31.9299 30.705 30.8499 31.08 30.1299 31.8C29.4399 32.49 28.9749 33.5699 28.7349 35.0399C28.5249 36.5099 28.4199 38.46 28.4199 40.89C28.4199 42.69 28.1349 44.175 27.5649 45.345C26.9949 46.515 26.1549 47.415 25.0449 48.045C25.7949 48.435 26.4099 48.975 26.8899 49.665C27.3999 50.325 27.7749 51.12 28.0149 52.05C28.2849 52.98 28.4199 54.03 28.4199 55.2C28.4199 57.6 28.5249 59.55 28.7349 61.05C28.9749 62.55 29.4399 63.645 30.1299 64.335C30.8499 65.025 31.9299 65.4 33.3699 65.46H33.5949C33.8649 65.46 34.0899 65.55 34.2699 65.73C34.4499 65.91 34.5399 66.15 34.5399 66.45V68.115C34.5399 68.415 34.4499 68.655 34.2699 68.835C34.0899 69.015 33.8499 69.105 33.5499 69.105H33.3249ZM49.7858 62.4C47.0258 62.4 44.7308 61.89 42.9008 60.87C41.1008 59.85 39.7358 58.425 38.8058 56.595C37.8758 54.765 37.3658 52.635 37.2758 50.205C37.2458 48.975 37.2308 47.655 37.2308 46.245C37.2308 44.835 37.2458 43.485 37.2758 42.195C37.3658 39.7649 37.8758 37.6349 38.8058 35.8049C39.7358 33.975 41.1008 32.5499 42.9008 31.5299C44.7308 30.5099 47.0258 29.9999 49.7858 29.9999C51.8558 29.9999 53.6708 30.2849 55.2308 30.8549C56.7908 31.4249 58.0808 32.1899 59.1008 33.1499C60.1508 34.1099 60.9458 35.1899 61.4858 36.39C62.0258 37.5599 62.3258 38.7749 62.3858 40.035C62.4158 40.305 62.3258 40.53 62.1158 40.7099C61.9358 40.89 61.7108 40.98 61.4408 40.98H58.9658C58.6958 40.98 58.4558 40.905 58.2458 40.755C58.0658 40.605 57.9308 40.335 57.8408 39.945C57.3308 37.6049 56.3708 35.9999 54.9608 35.13C53.5808 34.26 51.8408 33.825 49.7408 33.825C47.3408 33.825 45.4358 34.515 44.0258 35.8949C42.6158 37.2449 41.8508 39.4199 41.7308 42.42C41.6408 44.88 41.6408 47.4 41.7308 49.98C41.8508 52.98 42.6158 55.17 44.0258 56.55C45.4358 57.9 47.3408 58.575 49.7408 58.575C51.8408 58.575 53.5808 58.14 54.9608 57.27C56.3708 56.4 57.3308 54.795 57.8408 52.455C57.9308 52.065 58.0658 51.795 58.2458 51.645C58.4558 51.495 58.6958 51.42 58.9658 51.42H61.4408C61.7108 51.42 61.9358 51.51 62.1158 51.69C62.3258 51.87 62.4158 52.095 62.3858 52.365C62.3258 53.625 62.0258 54.855 61.4858 56.055C60.9458 57.225 60.1508 58.29 59.1008 59.25C58.0808 60.21 56.7908 60.975 55.2308 61.545C53.6708 62.115 51.8558 62.4 49.7858 62.4ZM65.9197 27.03C67.6897 27.03 69.1447 27.315 70.2847 27.8849C71.4547 28.4549 72.3697 29.2949 73.0297 30.4049C73.6897 31.5149 74.1547 32.8799 74.4247 34.5C74.7247 36.1199 74.8747 37.9799 74.8747 40.0799C74.8747 41.64 75.0697 42.84 75.4597 43.68C75.8797 44.52 76.5097 45.21 77.3497 45.75L77.6647 45.93C78.4147 46.41 78.7897 46.98 78.7897 47.64V48.54C78.7897 49.2 78.4147 49.755 77.6647 50.205L77.3047 50.43C76.4647 50.97 75.8497 51.66 75.4597 52.5C75.0697 53.34 74.8747 54.54 74.8747 56.1C74.8747 58.2 74.7247 60.06 74.4247 61.68C74.1547 63.27 73.6897 64.605 73.0297 65.685C72.3697 66.795 71.4547 67.635 70.2847 68.205C69.1447 68.805 67.7047 69.105 65.9647 69.105H65.6947C65.3947 69.105 65.1547 69.015 64.9747 68.835C64.7947 68.655 64.7047 68.415 64.7047 68.115V66.45C64.7047 66.15 64.7947 65.91 64.9747 65.73C65.1547 65.55 65.3947 65.46 65.6947 65.46H65.8747C67.3447 65.4 68.4247 65.025 69.1147 64.335C69.8347 63.645 70.2997 62.565 70.5097 61.095C70.7497 59.595 70.8697 57.645 70.8697 55.245C70.8697 53.415 71.1397 51.915 71.6797 50.745C72.2497 49.575 73.0897 48.69 74.1997 48.0899C73.4797 47.64 72.8647 47.085 72.3547 46.4249C71.8747 45.765 71.4997 44.985 71.2297 44.085C70.9897 43.1549 70.8697 42.105 70.8697 40.935C70.8697 38.5049 70.7497 36.5549 70.5097 35.085C70.2997 33.585 69.8497 32.49 69.1597 31.8C68.4697 31.08 67.3897 30.705 65.9197 30.6749H65.6947C65.3947 30.6749 65.1547 30.5849 64.9747 30.4049C64.7947 30.225 64.7047 29.985 64.7047 29.685V28.02C64.7047 27.7199 64.7947 27.4799 64.9747 27.2999C65.1547 27.1199 65.3947 27.03 65.6947 27.03H65.9197Z" fill="white"/>
</g>
<defs>
<filter id="filter0_d_596_148" x="0" y="0" width="98" height="98" filterUnits="userSpaceOnUse" color-interpolation-filters="sRGB">
<feFlood flood-opacity="0" result="BackgroundImageFix"/>
<feColorMatrix in="SourceAlpha" type="matrix" values="0 0 0 0 0 0 0 0 0 0 0 0 0 0 0 0 0 0 127 0" result="hardAlpha"/>
<feOffset dy="4"/>
<feGaussianBlur stdDeviation="2"/>
<feComposite in2="hardAlpha" operator="out"/>
<feColorMatrix type="matrix" values="0 0 0 0 0 0 0 0 0 0 0 0 0 0 0 0 0 0 0.25 0"/>
<feBlend mode="normal" in2="BackgroundImageFix" result="effect1_dropShadow_596_148"/>
<feBlend mode="normal" in="SourceGraphic" in2="effect1_dropShadow_596_148" result="shape"/>
</filter>
</defs>
</svg>
