<svg width="171" height="44" viewBox="0 0 171 44" fill="none" xmlns="http://www.w3.org/2000/svg">
<path d="M65.136 30.24C62.992 30.24 61.36 29.664 60.24 28.512C59.136 27.36 58.544 25.768 58.464 23.736C58.448 23.304 58.44 22.6 58.44 21.624C58.44 20.632 58.448 19.912 58.464 19.464C58.544 17.448 59.144 15.864 60.264 14.712C61.384 13.544 63.008 12.96 65.136 12.96C66.56 12.96 67.768 13.216 68.76 13.728C69.752 14.224 70.504 14.88 71.016 15.696C71.528 16.512 71.808 17.384 71.856 18.312V18.36C71.856 18.488 71.8 18.6 71.688 18.696C71.592 18.776 71.48 18.816 71.352 18.816H70.032C69.712 18.816 69.512 18.632 69.432 18.264C69.16 17.064 68.672 16.224 67.968 15.744C67.264 15.248 66.32 15 65.136 15C62.384 15 60.96 16.528 60.864 19.584C60.848 20.016 60.84 20.68 60.84 21.576C60.84 22.472 60.848 23.152 60.864 23.616C60.96 26.672 62.384 28.2 65.136 28.2C66.32 28.2 67.264 27.96 67.968 27.48C68.688 26.984 69.176 26.136 69.432 24.936C69.48 24.728 69.552 24.584 69.648 24.504C69.744 24.424 69.872 24.384 70.032 24.384H71.352C71.496 24.384 71.616 24.432 71.712 24.528C71.824 24.608 71.872 24.72 71.856 24.864C71.808 25.808 71.528 26.688 71.016 27.504C70.504 28.32 69.752 28.984 68.76 29.496C67.768 29.992 66.56 30.24 65.136 30.24ZM79.8724 30.24C78.1124 30.24 76.7444 29.744 75.7684 28.752C74.8084 27.76 74.2964 26.44 74.2324 24.792L74.2084 23.76L74.2324 22.728C74.2964 21.096 74.8164 19.784 75.7924 18.792C76.7684 17.784 78.1284 17.28 79.8724 17.28C81.6164 17.28 82.9764 17.784 83.9524 18.792C84.9284 19.784 85.4484 21.096 85.5124 22.728C85.5284 22.904 85.5364 23.248 85.5364 23.76C85.5364 24.272 85.5284 24.616 85.5124 24.792C85.4484 26.44 84.9284 27.76 83.9524 28.752C82.9924 29.744 81.6324 30.24 79.8724 30.24ZM79.8724 28.392C80.8804 28.392 81.6724 28.072 82.2484 27.432C82.8404 26.792 83.1604 25.872 83.2084 24.672C83.2244 24.512 83.2324 24.208 83.2324 23.76C83.2324 23.312 83.2244 23.008 83.2084 22.848C83.1604 21.648 82.8404 20.728 82.2484 20.088C81.6724 19.448 80.8804 19.128 79.8724 19.128C78.8644 19.128 78.0644 19.448 77.4724 20.088C76.8804 20.728 76.5684 21.648 76.5364 22.848L76.5124 23.76L76.5364 24.672C76.5684 25.872 76.8804 26.792 77.4724 27.432C78.0644 28.072 78.8644 28.392 79.8724 28.392ZM89.0936 30C88.9336 30 88.7976 29.952 88.6856 29.856C88.5896 29.744 88.5416 29.608 88.5416 29.448V18.072C88.5416 17.912 88.5896 17.784 88.6856 17.688C88.7976 17.576 88.9336 17.52 89.0936 17.52H90.2216C90.3816 17.52 90.5096 17.576 90.6056 17.688C90.7176 17.784 90.7736 17.912 90.7736 18.072V19.128C91.2376 18.536 91.7816 18.08 92.4056 17.76C93.0456 17.44 93.8376 17.28 94.7816 17.28C96.3176 17.28 97.5096 17.776 98.3576 18.768C99.2216 19.744 99.6536 21.048 99.6536 22.68V29.448C99.6536 29.608 99.5976 29.744 99.4856 29.856C99.3896 29.952 99.2616 30 99.1016 30H97.9016C97.7416 30 97.6056 29.952 97.4936 29.856C97.3976 29.744 97.3496 29.608 97.3496 29.448V22.8C97.3496 21.664 97.0696 20.784 96.5096 20.16C95.9656 19.536 95.1736 19.224 94.1336 19.224C93.1256 19.224 92.3256 19.544 91.7336 20.184C91.1416 20.808 90.8456 21.68 90.8456 22.8V29.448C90.8456 29.608 90.7896 29.744 90.6776 29.856C90.5816 29.952 90.4536 30 90.2936 30H89.0936ZM108.136 30.24C106.424 30.24 105.08 29.76 104.104 28.8C103.144 27.824 102.632 26.464 102.568 24.72L102.544 23.76L102.568 22.8C102.632 21.056 103.144 19.704 104.104 18.744C105.08 17.768 106.424 17.28 108.136 17.28C109.288 17.28 110.264 17.488 111.064 17.904C111.864 18.32 112.456 18.832 112.84 19.44C113.24 20.048 113.456 20.656 113.488 21.264C113.504 21.424 113.456 21.552 113.344 21.648C113.232 21.744 113.096 21.792 112.936 21.792H111.784C111.624 21.792 111.504 21.76 111.424 21.696C111.344 21.632 111.264 21.504 111.184 21.312C110.912 20.544 110.528 20 110.032 19.68C109.536 19.344 108.912 19.176 108.16 19.176C107.168 19.176 106.376 19.488 105.784 20.112C105.208 20.72 104.896 21.656 104.848 22.92L104.824 23.784L104.848 24.6C104.896 25.88 105.208 26.824 105.784 27.432C106.36 28.04 107.152 28.344 108.16 28.344C108.912 28.344 109.536 28.184 110.032 27.864C110.528 27.528 110.912 26.976 111.184 26.208C111.264 26.016 111.344 25.888 111.424 25.824C111.504 25.744 111.624 25.704 111.784 25.704H112.936C113.096 25.704 113.232 25.76 113.344 25.872C113.456 25.968 113.504 26.096 113.488 26.256C113.456 26.848 113.24 27.456 112.84 28.08C112.456 28.688 111.864 29.2 111.064 29.616C110.28 30.032 109.304 30.24 108.136 30.24ZM116.699 15.192C116.539 15.192 116.403 15.144 116.291 15.048C116.195 14.936 116.146 14.8 116.146 14.64V13.344C116.146 13.184 116.195 13.048 116.291 12.936C116.403 12.824 116.539 12.768 116.699 12.768H118.211C118.371 12.768 118.507 12.824 118.619 12.936C118.731 13.048 118.787 13.184 118.787 13.344V14.64C118.787 14.8 118.731 14.936 118.619 15.048C118.507 15.144 118.371 15.192 118.211 15.192H116.699ZM116.891 30C116.731 30 116.595 29.952 116.483 29.856C116.387 29.744 116.339 29.608 116.339 29.448V18.072C116.339 17.912 116.387 17.784 116.483 17.688C116.595 17.576 116.731 17.52 116.891 17.52H118.043C118.203 17.52 118.331 17.576 118.427 17.688C118.539 17.784 118.595 17.912 118.595 18.072V29.448C118.595 29.608 118.539 29.744 118.427 29.856C118.331 29.952 118.203 30 118.043 30H116.891ZM127.143 30.24C125.495 30.24 124.175 29.736 123.183 28.728C122.207 27.704 121.671 26.312 121.575 24.552L121.551 23.736L121.575 22.944C121.687 21.216 122.231 19.84 123.207 18.816C124.199 17.792 125.503 17.28 127.119 17.28C128.895 17.28 130.271 17.848 131.247 18.984C132.223 20.104 132.711 21.624 132.711 23.544V23.952C132.711 24.112 132.655 24.248 132.543 24.36C132.447 24.456 132.319 24.504 132.159 24.504H123.855V24.72C123.903 25.76 124.215 26.648 124.791 27.384C125.383 28.104 126.159 28.464 127.119 28.464C127.855 28.464 128.455 28.32 128.919 28.032C129.399 27.728 129.751 27.416 129.975 27.096C130.119 26.904 130.223 26.792 130.287 26.76C130.367 26.712 130.503 26.688 130.695 26.688H131.871C132.015 26.688 132.135 26.728 132.231 26.808C132.327 26.888 132.375 27 132.375 27.144C132.375 27.496 132.151 27.92 131.703 28.416C131.271 28.912 130.655 29.344 129.855 29.712C129.071 30.064 128.167 30.24 127.143 30.24ZM130.431 22.848V22.776C130.431 21.672 130.127 20.776 129.519 20.088C128.927 19.384 128.127 19.032 127.119 19.032C126.111 19.032 125.311 19.384 124.719 20.088C124.143 20.776 123.855 21.672 123.855 22.776V22.848H130.431ZM136.133 30C135.973 30 135.837 29.952 135.725 29.856C135.629 29.744 135.581 29.608 135.581 29.448V18.096C135.581 17.936 135.629 17.8 135.725 17.688C135.837 17.576 135.973 17.52 136.133 17.52H137.237C137.397 17.52 137.533 17.576 137.645 17.688C137.757 17.8 137.813 17.936 137.813 18.096V19.152C138.469 18.064 139.589 17.52 141.173 17.52H142.109C142.269 17.52 142.397 17.576 142.493 17.688C142.605 17.784 142.661 17.912 142.661 18.072V19.056C142.661 19.216 142.605 19.344 142.493 19.44C142.397 19.536 142.269 19.584 142.109 19.584H140.669C139.805 19.584 139.125 19.84 138.629 20.352C138.133 20.848 137.885 21.528 137.885 22.392V29.448C137.885 29.608 137.829 29.744 137.717 29.856C137.605 29.952 137.469 30 137.309 30H136.133ZM149.552 35.28C148.24 35.28 147.184 35.056 146.384 34.608C145.584 34.176 145.016 33.68 144.68 33.12C144.344 32.56 144.16 32.056 144.128 31.608C144.112 31.448 144.16 31.312 144.272 31.2C144.4 31.088 144.536 31.032 144.68 31.032H145.832C145.976 31.032 146.096 31.064 146.192 31.128C146.288 31.208 146.368 31.344 146.432 31.536C146.624 32.048 146.936 32.488 147.368 32.856C147.816 33.24 148.504 33.432 149.432 33.432C150.616 33.432 151.488 33.176 152.048 32.664C152.608 32.168 152.888 31.28 152.888 30V28.368C152.472 28.896 151.944 29.32 151.304 29.64C150.664 29.944 149.904 30.096 149.024 30.096C147.328 30.096 146.056 29.56 145.208 28.488C144.376 27.4 143.936 26.024 143.888 24.36L143.864 23.688L143.888 23.04C143.936 21.392 144.384 20.024 145.232 18.936C146.08 17.832 147.344 17.28 149.024 17.28C150.704 17.28 152.016 17.896 152.96 19.128V18.096C152.96 17.936 153.008 17.8 153.104 17.688C153.216 17.576 153.352 17.52 153.512 17.52H154.616C154.776 17.52 154.912 17.576 155.024 17.688C155.136 17.8 155.192 17.936 155.192 18.096V29.736C155.192 33.432 153.312 35.28 149.552 35.28ZM149.504 28.176C150.592 28.176 151.416 27.816 151.976 27.096C152.536 26.376 152.84 25.52 152.888 24.528C152.904 24.384 152.912 24.104 152.912 23.688C152.912 23.288 152.904 23.016 152.888 22.872C152.84 21.88 152.536 21.024 151.976 20.304C151.432 19.584 150.608 19.224 149.504 19.224C148.368 19.224 147.544 19.576 147.032 20.28C146.52 20.984 146.24 21.912 146.192 23.064L146.168 23.688L146.192 24.336C146.24 25.472 146.52 26.4 147.032 27.12C147.544 27.824 148.368 28.176 149.504 28.176ZM163.752 30.24C162.104 30.24 160.784 29.736 159.792 28.728C158.816 27.704 158.28 26.312 158.184 24.552L158.16 23.736L158.184 22.944C158.296 21.216 158.84 19.84 159.816 18.816C160.808 17.792 162.112 17.28 163.728 17.28C165.504 17.28 166.88 17.848 167.856 18.984C168.832 20.104 169.32 21.624 169.32 23.544V23.952C169.32 24.112 169.264 24.248 169.152 24.36C169.056 24.456 168.928 24.504 168.768 24.504H160.464V24.72C160.512 25.76 160.824 26.648 161.4 27.384C161.992 28.104 162.768 28.464 163.728 28.464C164.464 28.464 165.064 28.32 165.528 28.032C166.008 27.728 166.36 27.416 166.584 27.096C166.728 26.904 166.832 26.792 166.896 26.76C166.976 26.712 167.112 26.688 167.304 26.688H168.48C168.624 26.688 168.744 26.728 168.84 26.808C168.936 26.888 168.984 27 168.984 27.144C168.984 27.496 168.76 27.92 168.312 28.416C167.88 28.912 167.264 29.344 166.464 29.712C165.68 30.064 164.776 30.24 163.752 30.24ZM167.04 22.848V22.776C167.04 21.672 166.736 20.776 166.128 20.088C165.536 19.384 164.736 19.032 163.728 19.032C162.72 19.032 161.92 19.384 161.328 20.088C160.752 20.776 160.464 21.672 160.464 22.776V22.848H167.04Z" fill="white"/>
<path d="M11.7936 40.953C9.87168 40.953 8.37408 40.5411 7.3008 39.7174C6.22752 38.8938 5.46624 37.6957 5.01696 36.1232C4.59264 34.5507 4.38048 32.5414 4.38048 30.0954C4.38048 28.8224 4.21824 27.8365 3.89376 27.1376C3.56928 26.4138 3.03264 25.8147 2.28384 25.3405L2.02176 25.2282C1.67232 25.0035 1.42272 24.7914 1.27296 24.5917C1.14816 24.367 1.08576 24.105 1.08576 23.8054V23.0566C1.08576 22.7571 1.14816 22.5075 1.27296 22.3078C1.42272 22.0832 1.67232 21.8586 2.02176 21.6339L2.32128 21.4842C3.04512 21.0099 3.56928 20.4234 3.89376 19.7245C4.21824 19.0006 4.38048 18.0147 4.38048 16.7667C4.38048 14.3206 4.59264 12.3238 5.01696 10.7763C5.46624 9.20384 6.22752 8.00576 7.3008 7.18208C8.37408 6.3584 9.87168 5.94656 11.7936 5.94656H11.9808C12.2304 5.94656 12.4301 6.02144 12.5798 6.1712C12.7296 6.32096 12.8045 6.52064 12.8045 6.77024V8.15552C12.8045 8.40512 12.7296 8.6048 12.5798 8.75456C12.4301 8.90432 12.2429 8.9792 12.0182 8.9792H11.831C10.633 9.00416 9.7344 9.30368 9.13536 9.87776C8.56128 10.4518 8.1744 11.3254 7.97472 12.4986C7.8 13.6467 7.71264 15.3066 7.71264 17.4781C7.71264 20.3734 6.77664 22.3578 4.90464 23.431C6.77664 24.5043 7.71264 26.4886 7.71264 29.384C7.71264 31.5555 7.8 33.2278 7.97472 34.401C8.1744 35.5741 8.56128 36.4477 9.13536 37.0218C9.7344 37.5958 10.633 37.8954 11.831 37.9203H12.0182C12.2429 37.9203 12.4301 37.9952 12.5798 38.145C12.7296 38.2947 12.8045 38.4944 12.8045 38.744V40.1293C12.8045 40.3789 12.7296 40.5786 12.5798 40.7283C12.4301 40.8781 12.2304 40.953 11.9808 40.953H11.7936ZM25.489 35.3744C22.1444 35.3744 19.5985 34.4758 17.8513 32.6787C16.129 30.8816 15.2055 28.3981 15.0807 25.2282C15.0558 24.5542 15.0433 23.456 15.0433 21.9334C15.0433 20.3859 15.0558 19.2627 15.0807 18.5638C15.2055 15.4189 16.1415 12.9478 17.8887 11.1507C19.6359 9.32864 22.1694 8.4176 25.489 8.4176C27.7105 8.4176 29.595 8.81696 31.1425 9.61568C32.69 10.3894 33.8631 11.4128 34.6618 12.6858C35.4606 13.9587 35.8974 15.319 35.9722 16.7667V16.8416C35.9722 17.0413 35.8849 17.216 35.7102 17.3658C35.5604 17.4906 35.3857 17.553 35.186 17.553H33.1268C32.6276 17.553 32.3156 17.2659 32.1908 16.6918C31.7665 14.8198 31.0052 13.5094 29.907 12.7606C28.8087 11.9869 27.3361 11.6 25.489 11.6C21.1959 11.6 18.9745 13.9837 18.8247 18.751C18.7998 19.425 18.7873 20.4608 18.7873 21.8586C18.7873 23.2563 18.7998 24.3171 18.8247 25.041C18.9745 29.8083 21.1959 32.192 25.489 32.192C27.3361 32.192 28.8087 31.8176 29.907 31.0688C31.0302 30.295 31.7914 28.9722 32.1908 27.1002C32.2657 26.7757 32.378 26.551 32.5278 26.4262C32.6775 26.3014 32.8772 26.239 33.1268 26.239H35.186C35.4106 26.239 35.5978 26.3139 35.7476 26.4637C35.9223 26.5885 35.9972 26.7632 35.9722 26.9878C35.8974 28.4605 35.4606 29.8333 34.6618 31.1062C33.8631 32.3792 32.69 33.415 31.1425 34.2138C29.595 34.9875 27.7105 35.3744 25.489 35.3744ZM38.9124 5.94656C40.8344 5.94656 42.332 6.3584 43.4052 7.18208C44.5035 8.00576 45.2648 9.20384 45.6891 10.7763C46.1384 12.3238 46.363 14.3331 46.363 16.8042C46.363 18.0771 46.5252 19.063 46.8497 19.7619C47.1742 20.4608 47.6984 21.0474 48.4222 21.5216L48.7217 21.6714C49.0712 21.896 49.3083 22.1082 49.4331 22.3078C49.5579 22.5075 49.6203 22.7696 49.6203 23.0941V23.8429C49.6203 24.1424 49.5454 24.4045 49.3956 24.6291C49.2708 24.8288 49.0462 25.0285 48.7217 25.2282L48.3848 25.4154C47.6609 25.8896 47.1368 26.4886 46.8123 27.2125C46.5128 27.9114 46.363 28.8848 46.363 30.1328C46.363 32.5789 46.1384 34.5757 45.6891 36.1232C45.2648 37.6957 44.5035 38.8938 43.4052 39.7174C42.332 40.5411 40.8468 40.953 38.9499 40.953H38.7252C38.4756 40.953 38.276 40.8781 38.1262 40.7283C37.9764 40.5786 37.9016 40.3789 37.9016 40.1293V38.744C37.9016 38.4944 37.9764 38.2947 38.1262 38.145C38.276 37.9952 38.4756 37.9203 38.7252 37.9203H38.875C40.0731 37.8954 40.9716 37.5958 41.5707 37.0218C42.1697 36.4477 42.5566 35.5866 42.7313 34.4384C42.931 33.2653 43.0308 31.593 43.0308 29.4214C43.0308 26.4762 43.9544 24.4918 45.8014 23.4685C43.9544 22.4202 43.0308 20.4358 43.0308 17.5155C43.0308 15.344 42.931 13.6717 42.7313 12.4986C42.5566 11.3254 42.1697 10.4518 41.5707 9.87776C40.9966 9.30368 40.1105 9.00416 38.9124 8.9792H38.7252C38.4756 8.9792 38.276 8.90432 38.1262 8.75456C37.9764 8.6048 37.9016 8.40512 37.9016 8.15552V6.77024C37.9016 6.52064 37.9764 6.32096 38.1262 6.1712C38.276 6.02144 38.4756 5.94656 38.7252 5.94656H38.9124Z" fill="white"/>
</svg>
